<svg width="546" height="546" viewBox="0 0 546 546" fill="none" xmlns="http://www.w3.org/2000/svg">
<path d="M164.391 218.062C194.499 218.062 218.907 193.655 218.907 163.547C218.907 133.439 194.499 109.031 164.391 109.031C134.283 109.031 109.876 133.439 109.876 163.547C109.876 193.655 134.283 218.062 164.391 218.062Z" fill="#FF8B61"/>
<path d="M164.662 195.822C182.338 195.822 196.666 181.493 196.666 163.818C196.666 146.143 182.338 131.814 164.662 131.814C146.987 131.814 132.658 146.143 132.658 163.818C132.658 181.493 146.987 195.822 164.662 195.822Z" fill="#2D374C"/>
<path d="M164.662 180.634C173.949 180.634 181.478 173.105 181.478 163.818C181.478 154.531 173.949 147.002 164.662 147.002C155.375 147.002 147.846 154.531 147.846 163.818C147.846 173.105 155.375 180.634 164.662 180.634Z" fill="#F1E3CF"/>
<path d="M382.453 327.094C412.561 327.094 436.969 351.501 436.969 381.609C436.969 411.717 412.561 436.125 382.453 436.125C352.345 436.125 327.938 411.717 327.938 381.609C327.938 351.501 352.345 327.094 382.453 327.094Z" fill="#FF8B61"/>
<path d="M382.724 349.334C400.4 349.334 414.729 363.662 414.729 381.338C414.729 399.013 400.4 413.342 382.724 413.342C365.049 413.342 350.72 399.013 350.72 381.338C350.72 363.662 365.049 349.334 382.724 349.334Z" fill="#2D374C"/>
<path d="M382.724 364.522C392.012 364.522 399.54 372.051 399.54 381.338C399.54 390.625 392.012 398.154 382.724 398.154C373.437 398.154 365.909 390.625 365.909 381.338C365.909 372.051 373.437 364.522 382.724 364.522Z" fill="#F1E3CF"/>
<path d="M274.226 191.139C274.226 205.935 286.22 217.928 301.015 217.928C315.81 217.928 327.804 205.935 327.804 191.139C327.804 176.344 315.81 164.35 301.015 164.35C286.22 164.35 274.226 176.344 274.226 191.139Z" fill="#D33367"/>
<path d="M219.041 191.139C219.041 205.935 231.035 217.928 245.83 217.928C260.625 217.928 272.619 205.935 272.619 191.139C272.619 176.344 260.625 164.35 245.83 164.35C231.035 164.35 219.041 176.344 219.041 191.139Z" fill="#FF8B61"/>
<path d="M274.226 137.026C274.226 151.821 286.22 163.815 301.015 163.815C315.81 163.815 327.804 151.821 327.804 137.026C327.804 122.231 315.81 110.237 301.015 110.237C286.22 110.237 274.226 122.231 274.226 137.026Z" fill="#FF8B61"/>
<path d="M218.907 109.031V136.356C218.907 151.447 231.2 163.681 246.365 163.681C261.53 163.681 273.824 151.447 273.824 136.356C273.824 121.265 261.53 109.031 246.365 109.031H218.907Z" fill="#36868E"/>
<rect width="55.7211" height="55.7211" transform="matrix(-1 0 0 1 410.448 135.82)" fill="#F1E3CF"/>
<path d="M382.179 139.801L358.159 163.821L382.179 187.841L406.199 163.821L382.179 139.801Z" fill="#36868E"/>
<path d="M426.521 119.479H393.571C393.571 137.677 408.323 152.429 426.521 152.429L426.521 119.479Z" fill="#D33367"/>
<path d="M426.521 207.615V174.664C408.323 174.664 393.571 189.417 393.571 207.615H426.521Z" fill="#D33367"/>
<path d="M339.189 207.615H372.139C372.139 189.417 357.387 174.664 339.189 174.664V207.615Z" fill="#D33367"/>
<path d="M339.189 119.479V152.429C357.387 152.429 372.139 137.677 372.139 119.479L339.189 119.479Z" fill="#D33367"/>
<path d="M491.855 451.882L453.182 490.583L491.855 529.284L530.528 490.583L491.855 451.882Z" fill="#2D374C"/>
<path d="M505.625 476.803H478.086V504.362H505.625V476.803Z" fill="#36868E"/>
<path d="M273.422 109.031C303.53 109.031 327.938 84.6237 327.938 54.5156C327.938 24.4075 303.53 7.62939e-06 273.422 7.62939e-06H218.907L218.907 54.5156C218.907 84.6237 243.314 109.031 273.422 109.031Z" fill="#F1E3CF"/>
<path d="M251.507 65.1996C269.511 65.1996 284.106 50.6042 284.106 32.5998C284.106 14.5955 269.511 3.8147e-05 251.507 3.8147e-05H218.907L218.907 32.5998C218.907 50.6042 233.502 65.1996 251.507 65.1996Z" fill="#2D374C"/>
<path d="M273.422 88.3481C291.805 88.3481 306.707 73.4461 306.707 55.0635C306.707 36.6809 291.805 21.7789 273.422 21.7789C255.04 21.7789 240.138 36.6809 240.138 55.0635C240.138 73.4461 255.04 88.3481 273.422 88.3481Z" fill="#36868E"/>
<path d="M273.422 74.548C284.183 74.548 292.907 65.8245 292.907 55.0635C292.907 44.3025 284.183 35.579 273.422 35.579C262.661 35.579 253.938 44.3025 253.938 55.0635C253.938 65.8245 262.661 74.548 273.422 74.548Z" fill="#2D374C"/>
<path d="M327.938 54.7895V109.031L382.179 109.031C412.439 109.031 436.969 84.5011 436.969 54.2416V0L382.727 0C352.468 0 327.938 24.5301 327.938 54.7895Z" fill="#36868E"/>
<path d="M351.497 54.5156C351.497 72.2174 365.847 86.5675 383.549 86.5675C401.251 86.5675 415.601 72.2174 415.601 54.5156V22.4637L383.549 22.4637C365.847 22.4637 351.497 36.8138 351.497 54.5156Z" fill="#2D374C"/>
<path d="M327.938 87.4989V109.305H349.744C367.809 109.305 382.453 94.6607 382.453 76.5958V54.7896L360.647 54.7896C342.582 54.7896 327.938 69.434 327.938 87.4989Z" fill="#FF8B61"/>
<path d="M546 54.7895V109.031L491.758 109.031C461.499 109.031 436.969 84.5011 436.969 54.2416V0L491.21 0C521.47 0 546 24.5301 546 54.7895Z" fill="#D33367"/>
<path d="M522.44 54.5156C522.44 72.2174 508.09 86.5675 490.388 86.5675C472.687 86.5675 458.337 72.2174 458.337 54.5156V22.4637L490.388 22.4637C508.09 22.4637 522.44 36.8138 522.44 54.5156Z" fill="#2D374C"/>
<path d="M546 87.4989V109.305H524.194C506.129 109.305 491.484 94.6607 491.484 76.5958V54.7896L513.291 54.7896C531.356 54.7896 546 69.434 546 87.4989Z" fill="#FF8B61"/>
<path d="M491.484 327.094C461.376 327.094 436.969 351.501 436.969 381.609C436.969 411.717 461.376 436.125 491.484 436.125H546V381.609C546 351.501 521.593 327.094 491.484 327.094Z" fill="#F1E3CF"/>
<path d="M546 403.525C546 385.521 531.405 370.925 513.4 370.925C495.396 370.925 480.8 385.521 480.8 403.525C480.8 421.529 495.396 436.125 513.4 436.125H546V403.525Z" fill="#D33367"/>
<path d="M491.485 347.777C473.102 347.777 458.2 362.679 458.2 381.061C458.2 399.444 473.102 414.346 491.485 414.346C509.867 414.346 524.769 399.444 524.769 381.061C524.769 362.679 509.867 347.777 491.485 347.777Z" fill="#36868E"/>
<path d="M491.484 361.577C480.723 361.577 472 370.3 472 381.061C472 391.822 480.723 400.546 491.484 400.546C502.245 400.546 510.969 391.822 510.969 381.061C510.969 370.3 502.245 361.577 491.484 361.577Z" fill="#2D374C"/>
<path d="M273.438 318.131C298.738 318.131 319.248 297.621 319.248 272.321C319.248 247.022 298.738 226.512 273.438 226.512C248.139 226.512 227.629 247.022 227.629 272.321C227.629 297.621 248.139 318.131 273.438 318.131Z" fill="#F1E3CF"/>
<path d="M271.834 327.094C242.603 327.094 218.907 303.397 218.907 274.166V272.578H220.495C249.726 272.578 273.422 296.275 273.422 325.506V327.094H271.834Z" fill="#D33367"/>
<path d="M326.35 272.578H327.938V274.166C327.938 303.397 304.241 327.094 275.01 327.094H273.422V325.506C273.422 296.275 297.119 272.578 326.35 272.578Z" fill="#36868E"/>
<path d="M275.01 272.578H273.422V270.99C273.422 241.759 297.119 218.062 326.35 218.062H327.938V219.65C327.938 248.881 304.241 272.578 275.01 272.578Z" fill="#D33367"/>
<path d="M220.494 218.062C249.726 218.062 273.422 241.759 273.422 270.99V272.578H271.834C242.603 272.578 218.907 248.881 218.907 219.65V218.062H220.494Z" fill="#36868E"/>
<path d="M546 327.094H436.969V218.062C497.185 218.062 546 266.877 546 327.094Z" fill="#D33367"/>
<path d="M498.851 327.094H436.969V265.059C471.146 265.059 498.851 292.833 498.851 327.094Z" fill="#F1E3CF"/>
<path d="M465.365 327.094H436.969V298.627C452.652 298.627 465.365 311.372 465.365 327.094Z" fill="#2D374C"/>
<path d="M436.969 218.062V327.094H327.938C327.938 266.877 376.753 218.062 436.969 218.062Z" fill="#36868E"/>
<path d="M436.969 265.059V327.094H375.086C375.086 292.833 402.792 265.059 436.969 265.059Z" fill="#F1E3CF"/>
<path d="M436.969 298.627V327.094H408.573C408.573 311.372 421.286 298.627 436.969 298.627Z" fill="#2D374C"/>
<path d="M382.453 436.125C412.561 436.125 436.969 460.532 436.969 490.64C436.969 520.748 412.561 545.156 382.453 545.156C352.345 545.156 327.938 520.748 327.938 490.64C327.938 460.532 352.345 436.125 382.453 436.125Z" fill="#36868E"/>
<path d="M382.721 458.092C400.845 458.092 415.538 472.784 415.538 490.908C415.538 509.032 400.845 523.725 382.721 523.725C364.597 523.725 349.905 509.032 349.905 490.908C349.905 472.784 364.597 458.092 382.721 458.092Z" fill="#F1E3CF"/>
<path d="M383.257 473.897C392.948 473.897 400.804 481.753 400.804 491.444C400.804 501.135 392.948 508.991 383.257 508.991C373.566 508.991 365.71 501.135 365.71 491.444C365.71 481.753 373.566 473.897 383.257 473.897Z" fill="#2D374C"/>
<path d="M436.969 478.987V545.156H370.8C370.8 508.612 400.425 478.987 436.969 478.987Z" fill="#D33367"/>
<path d="M27.789 270.578C12.9939 270.578 1.00003 258.584 1.00003 243.789C1.00003 228.994 12.9939 217 27.789 217C42.5842 217 54.578 228.994 54.578 243.789C54.578 258.584 42.5842 270.578 27.789 270.578Z" fill="#D33367"/>
<path d="M27.789 326.031C12.9939 326.031 1.00003 314.037 1.00003 299.242C1.00003 284.447 12.9939 272.453 27.789 272.453C42.5842 272.453 54.578 284.447 54.578 299.242C54.578 314.037 42.5842 326.031 27.789 326.031Z" fill="#FF8B61"/>
<path d="M82.1707 270.578C67.3755 270.578 55.3817 258.584 55.3817 243.789C55.3817 228.994 67.3755 217 82.1707 217C96.9658 217 108.96 228.994 108.96 243.789C108.96 258.584 96.9658 270.578 82.1707 270.578Z" fill="#FF8B61"/>
<path d="M110.031 326.031H82.5727C67.4076 326.031 55.1139 313.738 55.1139 298.572C55.1139 283.407 67.4076 271.114 82.5727 271.114C97.7377 271.114 110.031 283.407 110.031 298.572V326.031Z" fill="#36868E"/>
<rect x="192.386" y="409.336" width="55.7211" height="55.7211" transform="rotate(-180 192.386 409.336)" fill="#F1E3CF"/>
<path d="M164.117 405.355L140.097 381.335L164.117 357.315L188.137 381.335L164.117 405.355Z" fill="#36868E"/>
<path d="M208.459 425.677H175.509C175.509 407.479 190.261 392.727 208.459 392.727L208.459 425.677Z" fill="#D33367"/>
<path d="M208.459 337.541V370.492C190.261 370.492 175.509 355.739 175.509 337.541H208.459Z" fill="#D33367"/>
<path d="M121.127 337.541H154.077C154.077 355.739 139.325 370.492 121.127 370.492V337.541Z" fill="#D33367"/>
<path d="M121.127 425.677V392.727C139.325 392.727 154.077 407.479 154.077 425.677H121.127Z" fill="#D33367"/>
<rect x="159.186" y="49.8585" width="33.9695" height="33.9695" transform="rotate(-180 159.186 49.8585)" fill="#F1E3CF"/>
<rect x="159.186" y="92.5943" width="33.9695" height="33.9695" transform="rotate(-180 159.186 92.5943)" fill="#F1E3CF"/>
<rect x="203.018" y="49.8585" width="33.9695" height="33.9695" transform="rotate(-180 203.018 49.8585)" fill="#F1E3CF"/>
<rect x="203.018" y="92.5943" width="33.9695" height="33.9695" transform="rotate(-180 203.018 92.5943)" fill="#F1E3CF"/>
<rect x="149.872" y="40.5443" width="15.889" height="15.889" transform="rotate(-180 149.872 40.5443)" fill="#2D374C"/>
<rect x="149.872" y="83.2801" width="15.889" height="15.889" transform="rotate(-180 149.872 83.2801)" fill="#2D374C"/>
<rect x="193.704" y="40.5443" width="15.889" height="15.889" transform="rotate(-180 193.704 40.5443)" fill="#2D374C"/>
<rect x="193.704" y="83.2801" width="15.889" height="15.889" transform="rotate(-180 193.704 83.2801)" fill="#2D374C"/>
<path d="M55.3601 436.125C85.4682 436.125 109.876 460.532 109.876 490.64C109.876 520.748 85.4682 545.156 55.3601 545.156H0.844482L0.844482 490.64C0.844482 460.532 25.2519 436.125 55.3601 436.125Z" fill="#F1E3CF"/>
<path d="M33.4443 479.956C51.4486 479.956 66.044 494.552 66.044 512.556C66.044 530.56 51.4486 545.156 33.4443 545.156H0.844482L0.844482 512.556C0.844482 494.552 15.4399 479.956 33.4443 479.956Z" fill="#2D374C"/>
<path d="M55.3603 456.808C73.7429 456.808 88.6449 471.71 88.6449 490.092C88.6449 508.475 73.7429 523.377 55.3603 523.377C36.9777 523.377 22.0756 508.475 22.0756 490.092C22.0756 471.71 36.9777 456.808 55.3603 456.808Z" fill="#36868E"/>
<path d="M55.3601 470.608C66.1211 470.608 74.8447 479.331 74.8447 490.092C74.8447 500.853 66.1211 509.577 55.3601 509.577C44.5991 509.577 35.8756 500.853 35.8756 490.092C35.8756 479.331 44.5991 470.608 55.3601 470.608Z" fill="#2D374C"/>
<path d="M109.876 490.366L109.876 436.125H164.117C194.377 436.125 218.907 460.655 218.907 490.914V545.156H164.665C134.406 545.156 109.876 520.626 109.876 490.366Z" fill="#36868E"/>
<path d="M133.435 490.64C133.435 472.938 147.785 458.588 165.487 458.588C183.189 458.588 197.539 472.938 197.539 490.64V522.692H165.487C147.785 522.692 133.435 508.342 133.435 490.64Z" fill="#2D374C"/>
<path d="M109.875 457.657L109.875 435.851H131.682C149.747 435.851 164.391 450.495 164.391 468.56V490.366H142.585C124.52 490.366 109.875 475.722 109.875 457.657Z" fill="#FF8B61"/>
<path d="M164.391 327.094C134.283 327.094 109.875 302.686 109.875 272.578C109.875 242.47 134.283 218.062 164.391 218.062H218.907L218.907 272.578C218.907 302.686 194.499 327.094 164.391 327.094Z" fill="#F1E3CF"/>
<path d="M218.907 250.662C218.907 268.667 204.311 283.262 186.307 283.262C168.303 283.262 153.707 268.666 153.707 250.662C153.707 232.658 168.303 218.062 186.307 218.062H218.907L218.907 250.662Z" fill="#D33367"/>
<path d="M164.391 306.41C146.009 306.41 131.106 291.508 131.106 273.126C131.106 254.743 146.009 239.841 164.391 239.841C182.774 239.841 197.676 254.743 197.676 273.126C197.676 291.508 182.774 306.41 164.391 306.41Z" fill="#36868E"/>
<path d="M164.391 292.61C153.63 292.61 144.907 283.887 144.907 273.126C144.907 262.365 153.63 253.641 164.391 253.641C175.152 253.641 183.876 262.365 183.876 273.126C183.876 283.887 175.152 292.61 164.391 292.61Z" fill="#2D374C"/>
<path d="M491.618 209.2C516.918 209.2 537.427 188.7 537.427 163.413C537.427 138.125 516.918 117.625 491.618 117.625C466.318 117.625 445.809 138.125 445.809 163.413C445.809 188.7 466.318 209.2 491.618 209.2Z" fill="#F1E3CF"/>
<path d="M546 109.031C546 138.991 521.772 163.278 491.886 163.278C491.886 133.318 516.114 109.031 546 109.031Z" fill="#D33367"/>
<path d="M491.082 161.698V163.278H489.506C460.49 163.278 436.969 139.698 436.969 110.611V109.031H438.545C467.56 109.031 491.082 132.611 491.082 161.698Z" fill="#36868E"/>
<path d="M489.506 163.815H491.082V165.395C491.082 194.483 467.56 218.062 438.545 218.062H436.969V216.482C436.969 187.395 460.49 163.815 489.506 163.815Z" fill="#D33367"/>
<path d="M546 216.482V218.062H544.424C515.408 218.062 491.886 194.483 491.886 165.395V163.815H493.462C522.478 163.815 546 187.395 546 216.482Z" fill="#36868E"/>
<path d="M301.225 436.125L246.165 436.125L273.695 408.594L301.225 436.125Z" fill="#FF8B61"/>
<path d="M219.179 436.125V327.094H328.21L219.179 436.125Z" fill="#36868E"/>
<path d="M328.21 436.125L219.179 327.094H328.21V436.125Z" fill="#F1E3CF"/>
<path d="M246.165 436.125H301.225L273.695 463.655L246.165 436.125Z" fill="#FF8B61"/>
<path d="M328.211 436.125V545.156H219.179L328.211 436.125Z" fill="#36868E"/>
<path d="M219.179 436.125L328.211 545.156H219.179V436.125Z" fill="#F1E3CF"/>
</svg>
