<svg width="122" height="118" viewBox="0 0 122 118" fill="none" xmlns="http://www.w3.org/2000/svg">
<g clip-path="url(#clip0_8_4)">
<path d="M57.9688 97.4969C54.8263 96.6646 51.6412 96.0031 48.4275 95.5151L47.703 19.4737V19.1962L48.4241 19.4737L57.2409 22.8686V23.5144L57.9688 97.4969Z" fill="#008790"/>
<path d="M92.204 107.951C89.9075 107.567 87.6347 107.052 85.3966 106.409C82.649 105.633 79.9766 104.756 77.3196 103.84L77.1488 89.5783V89.5046L76.549 39.4818L76.7592 39.3396L91.3787 29.4049L92.204 107.951Z" fill="#008790"/>
<path opacity="0.85" d="M62.8608 98.9134C61.2512 98.3996 59.6143 97.9302 57.9688 97.4969L57.2512 23.5144V22.8686L58.9325 23.5144L61.9244 24.6654L62.8608 98.9134Z" fill="#D99170"/>
<path d="M74.883 103.005C71.018 101.635 67.1444 100.243 63.0777 98.9888L62.8607 98.9203L61.9176 24.6723L58.9256 23.5212L57.2409 22.8686L57.1281 11.1337L73.986 2.53334L74.3158 39.3396L74.7669 89.5132V89.5868L74.883 103.005Z" fill="#FF8C5E"/>
<path d="M48.4275 95.5151C46.114 95.1725 43.7833 94.9207 41.451 94.794L40.5419 16.4436L47.6996 19.1962V19.4737L48.4275 95.5151Z" fill="#005F84"/>
<path d="M40.5419 16.4436L41.451 94.794C38.2367 94.6093 35.013 94.6751 31.8089 94.9909L30.9374 22.4387L47.5117 0L47.6928 19.1962L40.5419 16.4436Z" fill="#F53069"/>
<path d="M0 109.967C8.85098 103.5 19.3252 99.2474 30.2283 97.9148C41.2322 96.476 52.6514 98.4098 63.0778 101.723C70.7873 104.098 77.8032 107.012 85.3966 109.158C95.782 112.084 104.51 112.171 114.704 108.338C117.146 107.426 119.562 106.332 122 105.171C118.273 109.243 113.762 112.517 108.739 114.795C87.7836 124.171 66.126 110.352 45.5979 106.668C35.6619 104.688 25.4355 104.674 15.4345 106.419C10.2675 107.259 5.07992 108.625 0 109.967Z" fill="#23344C"/>
</g>
<defs>
<clipPath id="clip0_8_4">
<rect width="122" height="118" fill="white"/>
</clipPath>
</defs>
</svg>
