<svg width="108" height="143" viewBox="0 0 108 143" fill="none" xmlns="http://www.w3.org/2000/svg">
<path d="M4.88273 49.6717L26.6723 1.00574L75.3383 22.7953C102.487 34.951 114.642 66.8136 102.486 93.9626L80.6966 142.629L32.0306 120.839C4.88162 108.683 -7.2729 76.8207 4.88273 49.6717Z" fill="#D33367"/>
<path d="M25.9106 59.3817C33.0216 43.4995 51.6613 36.3891 67.5434 43.5002C83.4256 50.6112 90.536 69.2509 83.4249 85.133L70.5493 113.89L41.7921 101.015C25.9099 93.9035 18.7995 75.2638 25.9106 59.3817Z" fill="#2D374C"/>
<path d="M18.0224 20.3247L26.7823 0.76001L46.347 9.51987C62.5549 16.7768 69.8112 35.7988 62.5543 52.0067L53.7944 71.5715L34.2297 62.8116C18.0218 55.5547 10.7655 36.5327 18.0224 20.3247Z" fill="#FF8B61"/>
</svg>
