<svg width="16" height="15" viewBox="0 0 16 15" fill="none" xmlns="http://www.w3.org/2000/svg">
<path d="M2.22919 1.24675C2.04015 1.07728 1.78696 0.983511 1.52415 0.985631C1.26134 0.987751 1.00994 1.08559 0.824097 1.25808C0.638256 1.43057 0.53284 1.6639 0.530557 1.90783C0.528273 2.15175 0.629303 2.38675 0.811887 2.56221L6.60039 7.93478L0.810885 13.3073C0.715151 13.3932 0.638791 13.4958 0.586259 13.6093C0.533728 13.7228 0.506077 13.8449 0.504921 13.9684C0.503764 14.092 0.529125 14.2145 0.579523 14.3288C0.629922 14.4431 0.704349 14.547 0.798461 14.6343C0.892573 14.7217 1.00449 14.7908 1.12767 14.8375C1.25085 14.8843 1.38284 14.9079 1.51593 14.9068C1.64902 14.9057 1.78055 14.8801 1.90284 14.8313C2.02513 14.7825 2.13573 14.7117 2.22819 14.6228L8.0177 9.25024L13.8062 14.6228C13.9953 14.7923 14.2484 14.886 14.5113 14.8839C14.7741 14.8818 15.0255 14.784 15.2113 14.6115C15.3971 14.439 15.5026 14.2057 15.5048 13.9617C15.5071 13.7178 15.4061 13.4828 15.2235 13.3073L9.43501 7.93478L15.2235 2.56221C15.4061 2.38675 15.5071 2.15175 15.5048 1.90783C15.5026 1.6639 15.3971 1.43057 15.2113 1.25808C15.0255 1.08559 14.7741 0.987751 14.5113 0.985631C14.2484 0.983511 13.9953 1.07728 13.8062 1.24675L8.0177 6.61931L2.22919 1.24582V1.24675Z" fill="black"/>
</svg>
