<svg width="209" height="208" viewBox="0 0 209 208" fill="none" xmlns="http://www.w3.org/2000/svg">
<g style="mix-blend-mode:darken">
<path d="M57 136C57 80.7715 101.772 36 157 36H165V53C165 108.228 120.228 153 65 153H57V136Z" fill="#D33367"/>
</g>
<g style="mix-blend-mode:darken">
<path d="M48.6972 139.935C21.8025 91.6973 39.1042 30.7905 87.3418 3.89583L94.3291 5.72205e-05L102.608 14.8482C129.502 63.0857 112.201 123.992 63.9631 150.887L56.9757 154.783L48.6972 139.935Z" fill="#36868E"/>
</g>
<g style="mix-blend-mode:darken">
<path d="M64.5 138.603C92.1142 90.7733 153.273 74.3858 201.103 102L208.031 106L199.531 120.722C171.917 168.552 110.757 184.939 62.9282 157.325L56 153.325L64.5 138.603Z" fill="#FF8B61"/>
</g>
</svg>
