<svg width="20" height="16" viewBox="0 0 20 16" fill="none" xmlns="http://www.w3.org/2000/svg">
<path fill-rule="evenodd" clip-rule="evenodd" d="M5 0.0540161C3.67392 0.0540161 2.40215 0.5808 1.46447 1.51848C0.526784 2.45616 0 3.72793 0 5.05402C0 6.3801 0.526784 7.65187 1.46447 8.58955C2.40215 9.52723 3.67392 10.054 5 10.054C6.32608 10.054 7.59785 9.52723 8.53553 8.58955C9.47322 7.65187 10 6.3801 10 5.05402C10 3.72793 9.47322 2.45616 8.53553 1.51848C7.59785 0.5808 6.32608 0.0540161 5 0.0540161ZM3 5.05402C3 5.58445 3.21071 6.09316 3.58579 6.46823C3.96086 6.8433 4.46957 7.05402 5 7.05402C5.53043 7.05402 6.03914 6.8433 6.41421 6.46823C6.78929 6.09316 7 5.58445 7 5.05402C7 4.52358 6.78929 4.01488 6.41421 3.6398C6.03914 3.26473 5.53043 3.05402 5 3.05402C4.46957 3.05402 3.96086 3.26473 3.58579 3.6398C3.21071 4.01488 3 4.52358 3 5.05402Z" fill="#3D3D3D"/>
<path d="M20 6.55402H15V3.55402H20V6.55402ZM9.54998 12.946C10.0755 12.9467 10.5959 12.8435 11.0814 12.6424C11.5669 12.4412 12.0079 12.1461 12.379 11.774L14.5 13.895C13.8506 14.546 13.0791 15.0622 12.2296 15.414C11.3801 15.7658 10.4694 15.9463 9.54998 15.945C8.63052 15.9463 7.71988 15.7658 6.87039 15.414C6.0209 15.0622 5.24931 14.546 4.59998 13.895L6.72198 11.775C7.09306 12.1467 7.53392 12.4414 8.01924 12.6422C8.50456 12.843 9.02477 12.9459 9.54998 12.945V12.946Z" fill="#3D3D3D"/>
</svg>
