<svg width="16" height="17" viewBox="0 0 16 17" fill="none" xmlns="http://www.w3.org/2000/svg">
<path d="M2 2.5H6V0.5H0V6.5H2V2.5ZM6 14.5H2V10.5H0V16.5H6V14.5ZM10 2.5H14V6.5H16V0.5H10V2.5ZM10 14.5H14V10.5H16V16.5H10V14.5ZM8 5C7.54037 5 7.08525 5.09053 6.66061 5.26642C6.23597 5.44231 5.85013 5.70012 5.52513 6.02513C5.20012 6.35013 4.94231 6.73597 4.76642 7.16061C4.59053 7.58525 4.5 8.04037 4.5 8.5C4.5 8.95963 4.59053 9.41475 4.76642 9.83939C4.94231 10.264 5.20012 10.6499 5.52513 10.9749C5.85013 11.2999 6.23597 11.5577 6.66061 11.7336C7.08525 11.9095 7.54037 12 8 12C8.92826 12 9.8185 11.6313 10.4749 10.9749C11.1313 10.3185 11.5 9.42826 11.5 8.5C11.5 7.57174 11.1313 6.6815 10.4749 6.02513C9.8185 5.36875 8.92826 5 8 5Z" fill="#F7F7F7"/>
</svg>
